<svg
  width="110"
  height="93"
  viewBox="0 0 110 93"
  fill="currentColor"
  xmlns="http://www.w3.org/2000/svg"
>
  <path
    d="M62.8572 55H109.45V63.4857H72.6786V70.3214H105.914V78.3357H72.6786V91.4572H62.8572V55Z"
    fill="currentColor"></path>
  <path
    d="M62.8572 0H90.718C97.1454 0 101.966 1.12245 105.18 3.36735C108.393 5.61224 110 8.7375 110 12.7431C110 14.988 109.592 16.8587 108.774 18.3553C107.957 19.8079 107.004 20.9964 105.915 21.9208C104.825 22.8011 103.736 23.4394 102.647 23.8355C101.612 24.2317 100.849 24.4958 100.359 24.6279V24.7599C101.231 24.8479 102.157 25.068 103.137 25.4202C104.172 25.7723 105.125 26.3445 105.997 27.1369C106.868 27.8852 107.576 28.8756 108.121 30.1081C108.72 31.3405 109.02 32.8812 109.02 34.7299C109.02 37.503 109.02 40.0097 109.02 42.3619C109.02 44.714 109.02 45.1601 109.02 47.1429H99.8688C99.8688 46.2185 99.8688 47.1429 99.8688 43.7755C99.7599 42.543 99.8688 43.9957 99.7054 40.2101C99.5892 37.5183 99.542 36.2045 99.2152 34.6639C98.8884 33.0792 98.2892 31.7807 97.4177 30.7683C96.5462 29.7119 95.3479 28.9416 93.8228 28.4574C92.3521 27.9732 90.4457 27.7311 88.1035 27.7311H73.0701V47.1429H62.8572V0ZM73.0701 21.4586H89.8193C93.0874 21.4586 95.5658 20.8423 97.2543 19.6098C98.9428 18.3333 99.7871 16.4406 99.7871 13.9316C99.7871 12.435 99.5148 11.2245 98.9701 10.3001C98.4254 9.33173 97.6628 8.58343 96.6824 8.05523C95.7564 7.52701 94.667 7.17487 93.4142 6.9988C92.2159 6.82273 90.9632 6.73469 89.6559 6.73469H73.0701V21.4586Z"
    fill="currentColor"></path>
  <path
    d="M55.9429 91.4572H47.4572V85.9572H47.3001C46.0953 88.3143 44.3406 90.0167 42.0358 91.0643C39.731 92.0595 37.2953 92.5572 34.7287 92.5572C31.5334 92.5572 28.731 92.0072 26.3215 90.9072C23.9644 89.7548 22.0001 88.2095 20.4286 86.2715C18.8572 84.3334 17.6786 82.0548 16.8929 79.4357C16.1072 76.7643 15.7144 73.9095 15.7144 70.8714C15.7144 67.2048 16.212 64.0357 17.2072 61.3643C18.2025 58.6929 19.512 56.4929 21.1358 54.7643C22.812 53.0357 24.6977 51.7786 26.7929 50.9929C28.9406 50.1548 31.1144 49.7357 33.3144 49.7357C34.5715 49.7357 35.8548 49.8667 37.1644 50.1286C38.4739 50.3381 39.731 50.7048 40.9358 51.2286C42.1406 51.7524 43.2406 52.4333 44.2358 53.2714C45.2834 54.0572 46.1477 55 46.8287 56.1H46.9858V0H55.9429V91.4572ZM24.6715 71.5786C24.6715 73.3072 24.881 75.0095 25.3001 76.6857C25.7715 78.3619 26.4525 79.8548 27.3429 81.1643C28.2858 82.4738 29.4644 83.5215 30.8786 84.3072C32.2929 85.0929 33.9691 85.4857 35.9072 85.4857C37.8977 85.4857 39.6001 85.0667 41.0144 84.2286C42.481 83.3905 43.6596 82.2905 44.5501 80.9286C45.4929 79.5667 46.1739 78.0476 46.5929 76.3714C47.0644 74.6429 47.3001 72.8881 47.3001 71.1072C47.3001 66.6024 46.2787 63.0929 44.2358 60.5786C42.2453 58.0643 39.5215 56.8072 36.0644 56.8072C33.9691 56.8072 32.1882 57.2524 30.7215 58.1429C29.3072 58.981 28.1286 60.1072 27.1858 61.5214C26.2953 62.8833 25.6406 64.4548 25.2215 66.2357C24.8548 67.9643 24.6715 69.7452 24.6715 71.5786Z"
    fill="currentColor"></path>
  <path
    d="M0 0H38.7357V8.48572H9.82143V23.1786H35.2V31.1929H9.82143V90.3572H0V0Z"
    fill="currentColor"></path>
</svg>
